<svg width="225" height="40" viewBox="0 0 225 40" fill="none" xmlns="http://www.w3.org/2000/svg">
<path d="M55.89 5.58V18H53.64V7.236H48.672V18H46.404V5.58H55.89ZM63.7491 5.346C65.0211 5.346 66.0351 5.544 66.7911 5.94C67.5471 6.324 68.0871 6.984 68.4111 7.92C68.7471 8.856 68.9151 10.146 68.9151 11.79C68.9151 13.434 68.7471 14.724 68.4111 15.66C68.0871 16.596 67.5471 17.262 66.7911 17.658C66.0351 18.042 65.0211 18.234 63.7491 18.234C62.4891 18.234 61.4811 18.042 60.7251 17.658C59.9691 17.262 59.4231 16.596 59.0871 15.66C58.7631 14.724 58.6011 13.434 58.6011 11.79C58.6011 10.146 58.7631 8.856 59.0871 7.92C59.4231 6.984 59.9691 6.324 60.7251 5.94C61.4811 5.544 62.4891 5.346 63.7491 5.346ZM63.7491 7.182C63.0411 7.182 62.4831 7.32 62.0751 7.596C61.6791 7.872 61.3971 8.346 61.2291 9.018C61.0611 9.69 60.9771 10.614 60.9771 11.79C60.9771 12.966 61.0611 13.89 61.2291 14.562C61.3971 15.234 61.6791 15.708 62.0751 15.984C62.4831 16.26 63.0411 16.398 63.7491 16.398C64.4691 16.398 65.0271 16.26 65.4231 15.984C65.8311 15.708 66.1191 15.234 66.2871 14.562C66.4551 13.89 66.5391 12.966 66.5391 11.79C66.5391 10.614 66.4551 9.69 66.2871 9.018C66.1191 8.346 65.8311 7.872 65.4231 7.596C65.0271 7.32 64.4691 7.182 63.7491 7.182ZM80.6857 5.58V18H78.4177V7.236H76.4377C75.6817 7.236 75.2737 7.614 75.2137 8.37C75.1057 9.582 75.0037 10.62 74.9077 11.484C74.8237 12.348 74.7157 13.104 74.5837 13.752C74.4517 14.388 74.2717 14.964 74.0437 15.48C73.6837 16.428 73.1917 17.106 72.5677 17.514C71.9437 17.922 71.2057 18.096 70.3537 18.036L70.1737 16.29C70.5697 16.194 70.9117 16.05 71.1997 15.858C71.4997 15.654 71.7517 15.324 71.9557 14.868C72.0997 14.52 72.2257 14.154 72.3337 13.77C72.4417 13.374 72.5317 12.924 72.6037 12.42C72.6877 11.904 72.7657 11.298 72.8377 10.602C72.9097 9.906 72.9817 9.072 73.0537 8.1C73.1977 6.42 74.0977 5.58 75.7537 5.58H80.6857ZM86.2831 5.544C87.2191 5.544 88.1791 5.55 89.1631 5.562C90.1591 5.574 91.0831 5.616 91.9351 5.688L91.8271 7.362H86.9671C86.3191 7.362 85.9951 7.71 85.9951 8.406V10.674H91.1431V12.33H85.9951V15.174C85.9951 15.87 86.3191 16.218 86.9671 16.218H91.8271L91.9351 17.892C91.0831 17.964 90.1591 18.006 89.1631 18.018C88.1791 18.03 87.2191 18.036 86.2831 18.036C85.5151 18.036 84.8971 17.826 84.4291 17.406C83.9731 16.974 83.7451 16.398 83.7451 15.678V7.902C83.7451 7.182 83.9731 6.612 84.4291 6.192C84.8971 5.76 85.5151 5.544 86.2831 5.544ZM96.7103 5.58V16.344H100.526V5.58H102.74V16.344H106.574V5.58H108.77V16.344H110.246V20.718H108.644L108.464 18H94.4963V5.58H96.7103ZM113.622 5.58L115.8 12.42C115.86 12.6 115.986 12.69 116.178 12.69H116.736L119.094 5.58H121.398L118.23 14.85C118.026 15.474 117.798 16.026 117.546 16.506C117.294 16.986 116.988 17.37 116.628 17.658C116.268 17.946 115.812 18.114 115.26 18.162C115.008 18.186 114.714 18.186 114.378 18.162C114.054 18.138 113.73 18.102 113.406 18.054C113.082 18.006 112.8 17.958 112.56 17.91L112.812 16.308C113.376 16.344 113.832 16.362 114.18 16.362C114.528 16.362 114.804 16.32 115.008 16.236C115.212 16.152 115.38 16.008 115.512 15.804C115.656 15.588 115.806 15.288 115.962 14.904L116.124 14.436H115.44C115.032 14.436 114.714 14.34 114.486 14.148C114.27 13.956 114.108 13.686 114 13.338L111.3 5.58H113.622ZM125.521 5.58V9.252C125.521 9.756 125.479 10.242 125.395 10.71H126.457C127.129 10.71 127.663 10.512 128.059 10.116C128.455 9.72 128.797 9.138 129.085 8.37C129.373 7.602 129.691 6.672 130.039 5.58H132.325C132.013 6.528 131.731 7.362 131.479 8.082C131.227 8.79 130.963 9.384 130.687 9.864C130.423 10.344 130.105 10.716 129.733 10.98C129.361 11.244 128.893 11.412 128.329 11.484V11.556C128.929 11.628 129.427 11.802 129.823 12.078C130.219 12.342 130.561 12.732 130.849 13.248C131.137 13.764 131.419 14.412 131.695 15.192C131.971 15.972 132.295 16.908 132.667 18H130.291C129.967 16.992 129.679 16.134 129.427 15.426C129.187 14.706 128.935 14.124 128.671 13.68C128.419 13.224 128.119 12.888 127.771 12.672C127.435 12.456 127.003 12.348 126.475 12.348H125.395C125.431 12.576 125.461 12.798 125.485 13.014C125.509 13.218 125.521 13.422 125.521 13.626V18H123.271V5.58H125.521ZM144.615 5.58C144.807 5.58 144.975 5.634 145.119 5.742C145.263 5.85 145.365 5.994 145.425 6.174L149.187 18H146.883L145.821 14.454H141.195L140.151 18H137.847L141.609 6.174C141.657 5.994 141.753 5.85 141.897 5.742C142.053 5.634 142.227 5.58 142.419 5.58H144.615ZM142.977 8.424L141.717 12.69H145.299L144.039 8.424C143.991 8.244 143.943 8.058 143.895 7.866C143.847 7.662 143.805 7.47 143.769 7.29H143.265C143.229 7.47 143.187 7.662 143.139 7.866C143.091 8.058 143.037 8.244 142.977 8.424ZM160.251 5.58V18H157.983V7.236H156.003C155.247 7.236 154.839 7.614 154.779 8.37C154.671 9.582 154.569 10.62 154.473 11.484C154.389 12.348 154.281 13.104 154.149 13.752C154.017 14.388 153.837 14.964 153.609 15.48C153.249 16.428 152.757 17.106 152.133 17.514C151.509 17.922 150.771 18.096 149.919 18.036L149.739 16.29C150.135 16.194 150.477 16.05 150.765 15.858C151.065 15.654 151.317 15.324 151.521 14.868C151.665 14.52 151.791 14.154 151.899 13.77C152.007 13.374 152.097 12.924 152.169 12.42C152.253 11.904 152.331 11.298 152.403 10.602C152.475 9.906 152.547 9.072 152.619 8.1C152.763 6.42 153.663 5.58 155.319 5.58H160.251ZM167.864 10.368C168.956 10.368 169.814 10.494 170.438 10.746C171.074 10.986 171.524 11.394 171.788 11.97C172.064 12.534 172.202 13.302 172.202 14.274C172.202 15.282 172.064 16.068 171.788 16.632C171.524 17.196 171.098 17.592 170.51 17.82C169.934 18.036 169.178 18.144 168.242 18.144C167.498 18.144 166.862 18.138 166.334 18.126C165.806 18.126 165.32 18.114 164.876 18.09C164.432 18.066 163.964 18.036 163.472 18H163.418V5.58H165.686V10.368H167.864ZM167.864 12.006H165.686V16.362C166.31 16.374 167.036 16.38 167.864 16.38C168.416 16.38 168.842 16.326 169.142 16.218C169.454 16.098 169.664 15.882 169.772 15.57C169.892 15.258 169.952 14.808 169.952 14.22C169.952 13.668 169.898 13.23 169.79 12.906C169.682 12.582 169.478 12.354 169.178 12.222C168.878 12.078 168.44 12.006 167.864 12.006ZM179.159 10.764C180.263 10.764 181.133 10.884 181.769 11.124C182.417 11.352 182.873 11.736 183.137 12.276C183.413 12.816 183.551 13.548 183.551 14.472C183.551 15.528 183.389 16.32 183.065 16.848C182.741 17.376 182.249 17.73 181.589 17.91C180.941 18.078 180.119 18.162 179.123 18.162C178.307 18.162 177.557 18.15 176.873 18.126C176.189 18.102 175.475 18.06 174.731 18H174.677V5.58C175.373 5.544 176.057 5.514 176.729 5.49C177.413 5.466 178.085 5.454 178.745 5.454C179.441 5.454 180.125 5.466 180.797 5.49C181.481 5.514 182.159 5.544 182.831 5.58L182.633 7.326H176.927V10.764H179.159ZM179.159 12.33H176.927V16.398C177.575 16.398 178.319 16.398 179.159 16.398C179.735 16.398 180.173 16.344 180.473 16.236C180.785 16.128 180.995 15.93 181.103 15.642C181.223 15.354 181.283 14.934 181.283 14.382C181.283 13.866 181.229 13.458 181.121 13.158C181.013 12.858 180.803 12.648 180.491 12.528C180.191 12.396 179.747 12.33 179.159 12.33ZM195.922 5.58V18H193.762V9.918C193.762 9.378 193.804 8.856 193.888 8.352H193.78C193.696 8.604 193.594 8.862 193.474 9.126C193.354 9.39 193.234 9.636 193.114 9.864L188.308 18H186.076V5.58H188.236V13.536C188.236 13.812 188.224 14.088 188.2 14.364C188.176 14.64 188.152 14.91 188.128 15.174H188.2C188.308 14.922 188.422 14.67 188.542 14.418C188.674 14.154 188.806 13.902 188.938 13.662L193.69 5.58H195.922ZM201.377 5.58V10.494H206.345V5.58H208.595V18H206.345V12.258H201.377V18H199.109V5.58H201.377ZM217.228 5.58C217.42 5.58 217.588 5.634 217.732 5.742C217.876 5.85 217.978 5.994 218.038 6.174L221.8 18H219.496L218.434 14.454H213.808L212.764 18H210.46L214.222 6.174C214.27 5.994 214.366 5.85 214.51 5.742C214.666 5.634 214.84 5.58 215.032 5.58H217.228ZM215.59 8.424L214.33 12.69H217.912L216.652 8.424C216.604 8.244 216.556 8.058 216.508 7.866C216.46 7.662 216.418 7.47 216.382 7.29H215.878C215.842 7.47 215.8 7.662 215.752 7.866C215.704 8.058 215.65 8.244 215.59 8.424Z" fill="#219653"/>
<path d="M50.404 35.426C49.928 35.9207 49.2887 36.168 48.486 36.168C47.6833 36.168 47.0347 35.9113 46.54 35.398C46.0547 34.8753 45.812 34.152 45.812 33.228V28.972C45.812 28.048 46.05 27.3293 46.526 26.816C47.0113 26.2933 47.646 26.032 48.43 26.032C49.2327 26.032 49.872 26.2793 50.348 26.774C50.8333 27.2593 51.0993 27.9547 51.146 28.86H50.306C50.2127 27.4973 49.5873 26.816 48.43 26.816C47.8887 26.816 47.4547 26.998 47.128 27.362C46.8107 27.726 46.652 28.2627 46.652 28.972V33.228C46.652 33.9373 46.8153 34.474 47.142 34.838C47.478 35.202 47.926 35.384 48.486 35.384C49.6153 35.384 50.25 34.7027 50.39 33.34H51.23C51.1553 34.236 50.88 34.9313 50.404 35.426ZM53.2106 36V28.65H54.0366V32.85C54.0366 33.7087 54.0272 34.2593 54.0086 34.502L54.0366 34.53C54.2139 34.11 54.3772 33.746 54.5266 33.438L56.8786 28.65H57.7326V36H56.9066V32.038C56.9066 31.5153 56.9252 30.862 56.9626 30.078L56.9346 30.064C56.8692 30.2787 56.6732 30.722 56.3466 31.394L54.0646 36H53.2106ZM62.3117 36.14C61.593 36.14 61.019 35.9113 60.5897 35.454C60.1697 34.9967 59.9597 34.3527 59.9597 33.522V31.1C59.9597 30.2693 60.1697 29.6253 60.5897 29.168C61.019 28.7107 61.593 28.482 62.3117 28.482C63.049 28.482 63.6323 28.7107 64.0617 29.168C64.491 29.6253 64.715 30.2693 64.7337 31.1H63.8937C63.8563 29.896 63.329 29.294 62.3117 29.294C61.3037 29.294 60.7997 29.896 60.7997 31.1V33.522C60.7997 34.726 61.3037 35.328 62.3117 35.328C63.3383 35.328 63.8703 34.726 63.9077 33.522H64.7477C64.729 34.3527 64.5003 34.9967 64.0617 35.454C63.6323 35.9113 63.049 36.14 62.3117 36.14ZM70.4546 28.65V29.42H68.6346V36H67.8086V29.42H65.9886V28.65H70.4546ZM75.709 33.746H76.535C76.479 34.5207 76.227 35.1133 75.779 35.524C75.3403 35.9347 74.7383 36.14 73.973 36.14C73.245 36.14 72.6663 35.9113 72.237 35.454C71.817 34.9967 71.607 34.3527 71.607 33.522V31.1C71.607 30.2693 71.8217 29.6253 72.251 29.168C72.6803 28.7107 73.259 28.482 73.987 28.482C74.7337 28.482 75.3263 28.7107 75.765 29.168C76.213 29.6253 76.437 30.2693 76.437 31.1V32.724H72.447V33.522C72.447 34.726 72.965 35.328 74.001 35.328C74.533 35.328 74.9343 35.202 75.205 34.95C75.485 34.6887 75.653 34.2873 75.709 33.746ZM74.001 29.294C72.965 29.294 72.447 29.896 72.447 31.1V31.954H75.611V31.1C75.611 29.896 75.0743 29.294 74.001 29.294ZM83.4817 28.65H84.3357V36H83.5377V31.954C83.5377 31.6833 83.5471 31.3473 83.5657 30.946C83.5937 30.5353 83.6077 30.2693 83.6077 30.148L83.5657 30.134C83.3137 30.8713 83.0991 31.436 82.9217 31.828L81.9137 34.068H81.0737L80.0657 31.828C79.8884 31.436 79.6737 30.8713 79.4217 30.134L79.3797 30.148C79.3797 30.2693 79.3891 30.5353 79.4077 30.946C79.4357 31.3473 79.4497 31.6833 79.4497 31.954V36H78.6517V28.65H79.5057L81.0037 31.996C81.0504 32.1267 81.1251 32.3227 81.2277 32.584C81.3397 32.836 81.4237 33.0273 81.4797 33.158H81.5077C81.5544 33.0273 81.6291 32.836 81.7317 32.584C81.8437 32.3227 81.9277 32.1267 81.9837 31.996L83.4817 28.65ZM90.3709 28.65H91.1969V36H90.3709V32.584H87.5709V36H86.7449V28.65H87.5709V31.8H90.3709V28.65ZM95.7777 31.352C96.4497 31.352 97.019 31.5713 97.4857 32.01C97.9523 32.4393 98.1857 32.99 98.1857 33.662C98.1857 34.3433 97.9523 34.9033 97.4857 35.342C97.019 35.7807 96.4497 36 95.7777 36H93.6077V28.72H94.4337V31.352H95.7777ZM99.3057 28.72H100.132V36H99.3057V28.72ZM95.7777 35.202C96.2257 35.202 96.599 35.062 96.8977 34.782C97.1963 34.4927 97.3457 34.1193 97.3457 33.662C97.3457 33.2047 97.1963 32.8407 96.8977 32.57C96.599 32.29 96.2257 32.15 95.7777 32.15H94.4337V35.202H95.7777ZM105.937 27.082C105.666 27.362 105.288 27.502 104.803 27.502C104.318 27.502 103.935 27.362 103.655 27.082C103.384 26.7927 103.24 26.3913 103.221 25.878H103.949C103.996 26.494 104.28 26.802 104.803 26.802C105.326 26.802 105.61 26.494 105.657 25.878H106.385C106.366 26.3913 106.217 26.7927 105.937 27.082ZM102.535 36V28.65H103.361V32.85C103.361 33.7087 103.352 34.2593 103.333 34.502L103.361 34.53C103.538 34.11 103.702 33.746 103.851 33.438L106.203 28.65H107.057V36H106.231V32.038C106.231 31.5153 106.25 30.862 106.287 30.078L106.259 30.064C106.194 30.2787 105.998 30.722 105.671 31.394L103.389 36H102.535ZM115.395 36.14C114.677 36.14 114.103 35.9113 113.673 35.454C113.253 34.9967 113.043 34.3527 113.043 33.522V31.1C113.043 30.2693 113.253 29.6253 113.673 29.168C114.103 28.7107 114.677 28.482 115.395 28.482C116.133 28.482 116.716 28.7107 117.145 29.168C117.575 29.6253 117.799 30.2693 117.817 31.1H116.977C116.94 29.896 116.413 29.294 115.395 29.294C114.387 29.294 113.883 29.896 113.883 31.1V33.522C113.883 34.726 114.387 35.328 115.395 35.328C116.422 35.328 116.954 34.726 116.991 33.522H117.831C117.813 34.3527 117.584 34.9967 117.145 35.454C116.716 35.9113 116.133 36.14 115.395 36.14ZM123.748 33.746H124.574C124.518 34.5207 124.266 35.1133 123.818 35.524C123.379 35.9347 122.777 36.14 122.012 36.14C121.284 36.14 120.705 35.9113 120.276 35.454C119.856 34.9967 119.646 34.3527 119.646 33.522V31.1C119.646 30.2693 119.861 29.6253 120.29 29.168C120.719 28.7107 121.298 28.482 122.026 28.482C122.773 28.482 123.365 28.7107 123.804 29.168C124.252 29.6253 124.476 30.2693 124.476 31.1V32.724H120.486V33.522C120.486 34.726 121.004 35.328 122.04 35.328C122.572 35.328 122.973 35.202 123.244 34.95C123.524 34.6887 123.692 34.2873 123.748 33.746ZM122.04 29.294C121.004 29.294 120.486 29.896 120.486 31.1V31.954H123.65V31.1C123.65 29.896 123.113 29.294 122.04 29.294ZM131.521 28.65H132.375V36H131.577V31.954C131.577 31.6833 131.586 31.3473 131.605 30.946C131.633 30.5353 131.647 30.2693 131.647 30.148L131.605 30.134C131.353 30.8713 131.138 31.436 130.961 31.828L129.953 34.068H129.113L128.105 31.828C127.928 31.436 127.713 30.8713 127.461 30.134L127.419 30.148C127.419 30.2693 127.428 30.5353 127.447 30.946C127.475 31.3473 127.489 31.6833 127.489 31.954V36H126.691V28.65H127.545L129.043 31.996C129.09 32.1267 129.164 32.3227 129.267 32.584C129.379 32.836 129.463 33.0273 129.519 33.158H129.547C129.594 33.0273 129.668 32.836 129.771 32.584C129.883 32.3227 129.967 32.1267 130.023 31.996L131.521 28.65ZM138.704 33.746H139.53C139.474 34.5207 139.222 35.1133 138.774 35.524C138.335 35.9347 137.733 36.14 136.968 36.14C136.24 36.14 135.661 35.9113 135.232 35.454C134.812 34.9967 134.602 34.3527 134.602 33.522V31.1C134.602 30.2693 134.817 29.6253 135.246 29.168C135.675 28.7107 136.254 28.482 136.982 28.482C137.729 28.482 138.321 28.7107 138.76 29.168C139.208 29.6253 139.432 30.2693 139.432 31.1V32.724H135.442V33.522C135.442 34.726 135.96 35.328 136.996 35.328C137.528 35.328 137.929 35.202 138.2 34.95C138.48 34.6887 138.648 34.2873 138.704 33.746ZM136.996 29.294C135.96 29.294 135.442 29.896 135.442 31.1V31.954H138.606V31.1C138.606 29.896 138.069 29.294 136.996 29.294ZM145.049 27.082C144.778 27.362 144.4 27.502 143.915 27.502C143.429 27.502 143.047 27.362 142.767 27.082C142.496 26.7927 142.351 26.3913 142.333 25.878H143.061C143.107 26.494 143.392 26.802 143.915 26.802C144.437 26.802 144.722 26.494 144.769 25.878H145.497C145.478 26.3913 145.329 26.7927 145.049 27.082ZM141.647 36V28.65H142.473V32.85C142.473 33.7087 142.463 34.2593 142.445 34.502L142.473 34.53C142.65 34.11 142.813 33.746 142.963 33.438L145.315 28.65H146.169V36H145.343V32.038C145.343 31.5153 145.361 30.862 145.399 30.078L145.371 30.064C145.305 30.2787 145.109 30.722 144.783 31.394L142.501 36H141.647ZM152.204 28.65H153.03V36H152.204V32.584H149.404V36H148.578V28.65H149.404V31.8H152.204V28.65ZM157.611 31.352C158.283 31.352 158.852 31.5713 159.319 32.01C159.785 32.4393 160.019 32.99 160.019 33.662C160.019 34.3433 159.785 34.9033 159.319 35.342C158.852 35.7807 158.283 36 157.611 36H155.441V28.72H156.267V31.352H157.611ZM161.139 28.72H161.965V36H161.139V28.72ZM157.611 35.202C158.059 35.202 158.432 35.062 158.731 34.782C159.029 34.4927 159.179 34.1193 159.179 33.662C159.179 33.2047 159.029 32.8407 158.731 32.57C158.432 32.29 158.059 32.15 157.611 32.15H156.267V35.202H157.611ZM167.77 27.082C167.499 27.362 167.121 27.502 166.636 27.502C166.15 27.502 165.768 27.362 165.488 27.082C165.217 26.7927 165.072 26.3913 165.054 25.878H165.782C165.828 26.494 166.113 26.802 166.636 26.802C167.158 26.802 167.443 26.494 167.49 25.878H168.218C168.199 26.3913 168.05 26.7927 167.77 27.082ZM164.368 36V28.65H165.194V32.85C165.194 33.7087 165.184 34.2593 165.166 34.502L165.194 34.53C165.371 34.11 165.534 33.746 165.684 33.438L168.036 28.65H168.89V36H168.064V32.038C168.064 31.5153 168.082 30.862 168.12 30.078L168.092 30.064C168.026 30.2787 167.83 30.722 167.504 31.394L165.222 36H164.368ZM178.768 28.65V29.42H176.948V36H176.122V29.42H174.302V28.65H178.768ZM184.023 33.746H184.849C184.793 34.5207 184.541 35.1133 184.093 35.524C183.654 35.9347 183.052 36.14 182.287 36.14C181.559 36.14 180.98 35.9113 180.551 35.454C180.131 34.9967 179.921 34.3527 179.921 33.522V31.1C179.921 30.2693 180.135 29.6253 180.565 29.168C180.994 28.7107 181.573 28.482 182.301 28.482C183.047 28.482 183.64 28.7107 184.079 29.168C184.527 29.6253 184.751 30.2693 184.751 31.1V32.724H180.761V33.522C180.761 34.726 181.279 35.328 182.315 35.328C182.847 35.328 183.248 35.202 183.519 34.95C183.799 34.6887 183.967 34.2873 184.023 33.746ZM182.315 29.294C181.279 29.294 180.761 29.896 180.761 31.1V31.954H183.925V31.1C183.925 29.896 183.388 29.294 182.315 29.294ZM189.485 28.482C190.176 28.482 190.727 28.7247 191.137 29.21C191.557 29.6953 191.767 30.3907 191.767 31.296V33.41C191.767 34.306 191.567 34.992 191.165 35.468C190.764 35.9347 190.204 36.168 189.485 36.168C188.748 36.168 188.179 35.8927 187.777 35.342V38.52H186.965V28.65H187.637L187.749 29.336C188.16 28.7667 188.739 28.482 189.485 28.482ZM190.927 33.41V31.296C190.927 29.9333 190.386 29.252 189.303 29.252C188.855 29.252 188.487 29.4247 188.197 29.77C187.917 30.1153 187.777 30.6147 187.777 31.268V33.41C187.777 33.998 187.917 34.4787 188.197 34.852C188.477 35.216 188.846 35.398 189.303 35.398C189.854 35.398 190.26 35.2393 190.521 34.922C190.792 34.6047 190.927 34.1007 190.927 33.41ZM196.148 28.482C196.848 28.482 197.399 28.7013 197.8 29.14C198.201 29.5787 198.402 30.1713 198.402 30.918V36H197.688L197.618 35.314C197.226 35.8833 196.661 36.168 195.924 36.168C195.233 36.168 194.673 35.9673 194.244 35.566C193.815 35.1647 193.6 34.614 193.6 33.914C193.6 33.2047 193.819 32.6633 194.258 32.29C194.697 31.9073 195.317 31.716 196.12 31.716H197.576V30.932C197.576 29.8307 197.091 29.28 196.12 29.28C195.7 29.28 195.355 29.3967 195.084 29.63C194.823 29.854 194.678 30.1667 194.65 30.568H193.824C193.852 29.9333 194.076 29.4293 194.496 29.056C194.916 28.6733 195.467 28.482 196.148 28.482ZM196.05 35.356C196.517 35.356 196.885 35.2253 197.156 34.964C197.436 34.6933 197.576 34.348 197.576 33.928V32.486H196.092C194.991 32.486 194.44 32.9667 194.44 33.928C194.44 34.3947 194.585 34.7493 194.874 34.992C195.163 35.2347 195.555 35.356 196.05 35.356ZM205.266 28.65V36H204.44V29.434H201.64V36H200.814V28.65H205.266ZM211.597 33.746H212.423C212.367 34.5207 212.115 35.1133 211.667 35.524C211.228 35.9347 210.626 36.14 209.861 36.14C209.133 36.14 208.554 35.9113 208.125 35.454C207.705 34.9967 207.495 34.3527 207.495 33.522V31.1C207.495 30.2693 207.709 29.6253 208.139 29.168C208.568 28.7107 209.147 28.482 209.875 28.482C210.621 28.482 211.214 28.7107 211.653 29.168C212.101 29.6253 212.325 30.2693 212.325 31.1V32.724H208.335V33.522C208.335 34.726 208.853 35.328 209.889 35.328C210.421 35.328 210.822 35.202 211.093 34.95C211.373 34.6887 211.541 34.2873 211.597 33.746ZM209.889 29.294C208.853 29.294 208.335 29.896 208.335 31.1V31.954H211.499V31.1C211.499 29.896 210.962 29.294 209.889 29.294ZM217.871 32.108C218.235 32.248 218.525 32.486 218.739 32.822C218.963 33.158 219.075 33.5127 219.075 33.886C219.075 34.558 218.87 35.0807 218.459 35.454C218.049 35.818 217.456 36 216.681 36H214.539V28.664H216.471C217.181 28.664 217.731 28.8413 218.123 29.196C218.515 29.5413 218.711 30.0173 218.711 30.624C218.711 31.2213 218.431 31.716 217.871 32.108ZM215.351 29.448V31.8H216.457C216.924 31.8 217.279 31.6973 217.521 31.492C217.764 31.2867 217.885 30.9973 217.885 30.624C217.885 29.84 217.409 29.448 216.457 29.448H215.351ZM216.667 35.216C217.722 35.216 218.249 34.7727 218.249 33.886C218.249 33.018 217.722 32.584 216.667 32.584H215.351V35.216H216.667ZM224.729 28.65V29.42H222.909V36H222.083V29.42H220.263V28.65H224.729Z" fill="#444444"/>
<!-- <path fill-rule="evenodd" clip-rule="evenodd" d="M18 33.6522C17.1238 35.5939 15.1709 36.9453 12.9023 36.9453C9.71156 36.9453 7.16674 34.2798 7.31911 31.0844C5.00273 30.4906 3.83133 27.9004 4.89347 25.7729C2.63855 24.8269 1.05469 22.5985 1.05469 20C1.05469 17.4015 2.63855 15.173 4.89354 14.2271C3.8314 12.0996 5.0028 9.50945 7.31918 8.91559C7.16674 5.72023 9.71156 3.05469 12.9023 3.05469C15.1709 3.05469 17.1238 4.40609 18 6.34777C18.8762 4.40609 20.8291 3.05469 23.0977 3.05469C26.2884 3.05469 28.8333 5.72023 28.6808 8.91559C30.9972 9.50945 32.1686 12.0996 31.1065 14.2271C33.3615 15.1731 34.9453 17.4015 34.9453 20C34.9453 22.5985 33.3615 24.8269 31.1065 25.7729C32.1686 27.9004 30.9972 30.4906 28.6808 31.0844C28.8333 34.2798 26.2884 36.9453 23.0977 36.9453C20.8291 36.9453 18.8762 35.5939 18 33.6522Z" fill="#F1F1F1"/>
<path fill-rule="evenodd" clip-rule="evenodd" d="M34.9453 20C34.9453 17.4015 33.3615 15.173 31.1065 14.2271C32.1686 12.0996 30.9972 9.50945 28.6808 8.91559C28.8333 5.72023 26.2884 3.05469 23.0977 3.05469C20.8291 3.05469 18.8762 4.40609 18 6.34777V33.6523C18.8762 35.5939 20.8291 36.9453 23.0977 36.9453C26.2884 36.9453 28.8333 34.2798 28.6809 31.0844C30.9973 30.4906 32.1687 27.9004 31.1065 25.7729C33.3615 24.8269 34.9453 22.5985 34.9453 20Z" fill="#F9F9F9"/>
<path d="M36 20C36 17.3855 34.6213 15.0113 32.4159 13.7072C32.6749 12.6644 32.5765 11.5579 32.118 10.5539C31.6278 9.48055 30.7782 8.64151 29.7259 8.16795C29.619 6.62945 28.9875 5.19303 27.906 4.05868C26.6402 2.73111 24.9326 2 23.0977 2C21.1041 2 19.2447 2.89782 18 4.38303C16.7554 2.89782 14.896 2 12.9023 2C11.0674 2 9.35979 2.73111 8.09402 4.05875C7.01248 5.1931 6.381 6.62945 6.27406 8.16802C5.22169 8.64158 4.3721 9.48062 3.88195 10.554C3.42345 11.558 3.32508 12.6646 3.58411 13.7073C1.37869 15.0113 0 17.3855 0 20C0 22.6145 1.37869 24.9887 3.58411 26.2928C3.32508 27.3356 3.42352 28.4421 3.88195 29.4461C4.37217 30.5195 5.22176 31.3585 6.27406 31.832C6.381 33.3706 7.01248 34.807 8.09402 35.9413C9.35979 37.2689 11.0674 38 12.9023 38C14.896 38 16.7554 37.1022 18 35.617C19.2447 37.1022 21.1041 38 23.0977 38C24.9326 38 26.6402 37.2689 27.906 35.9412C28.9875 34.8069 29.619 33.3705 29.7259 31.832C30.7783 31.3584 31.6279 30.5194 32.118 29.446C32.5766 28.442 32.6749 27.3355 32.4159 26.2927C34.6213 24.9887 36 22.6145 36 20ZM30.899 24.7109H25.875V21.6792H29.6016C30.184 21.6792 30.6562 21.207 30.6562 20.6245C30.6562 20.5411 30.6562 17.5391 30.6562 17.5391C30.6562 16.9567 30.184 16.4844 29.6015 16.4844C29.019 16.4844 28.5468 16.9567 28.5468 17.5391V19.5698H25.875V17.7417C25.875 16.5786 24.9287 15.6323 23.7656 15.6323H21.6562C21.0738 15.6323 20.6016 16.1045 20.6016 16.687C20.6016 17.2695 21.0738 17.7417 21.6562 17.7417H23.7656V24.7109H19.0544V22.8125C19.0544 22.23 18.5822 21.7578 17.9997 21.7578C17.4173 21.7578 16.945 22.23 16.945 22.8125V24.7109C16.945 25.874 17.8913 26.8203 19.0544 26.8203H30.3725C30.5111 27.399 30.4539 28.0122 30.1992 28.5698C29.8585 29.3159 29.2096 29.8601 28.4188 30.0628C27.9341 30.1872 27.6034 30.6349 27.6273 31.1348C27.6872 32.3888 27.2439 33.5789 26.3792 34.4858C25.5155 35.3917 24.3501 35.8906 23.0977 35.8906C21.3893 35.8906 19.8255 34.9242 19.0547 33.4115V31.1797H20.9531C21.5356 31.1797 22.0078 30.7075 22.0078 30.125C22.0078 29.5425 21.5356 29.0703 20.9531 29.0703H19.0547C17.8916 29.0703 16.9453 30.0166 16.9453 31.1797V33.4114C16.1746 34.9242 14.6109 35.8906 12.9023 35.8906C11.6499 35.8906 10.4845 35.3917 9.62072 34.4857C8.99866 33.8334 8.5962 33.034 8.44073 32.1702H10.9688C12.1319 32.1702 13.0781 31.2239 13.0781 30.0608V28.757H13.9922C14.5747 28.757 15.0469 28.2848 15.0469 27.7023C15.0469 27.1198 14.5747 26.6476 13.9922 26.6476H13.0781V25.3438C13.0781 24.1806 12.1319 23.2344 10.9688 23.2344H9.14062C8.55816 23.2344 8.08594 23.7066 8.08594 24.2891C8.08594 24.8715 8.55816 25.3438 9.14062 25.3438H10.9688V30.0608H7.67524C7.64606 30.0608 7.61745 30.0628 7.5889 30.0652C7.58623 30.0645 7.58377 30.0635 7.58109 30.0628C6.79029 29.86 6.14138 29.3158 5.80071 28.5698C5.45927 27.8221 5.47249 26.9744 5.8372 26.244C5.96749 25.983 5.98388 25.6796 5.88241 25.406C5.78095 25.1325 5.57065 24.9132 5.30156 24.8004C3.36234 23.9869 2.10938 22.1026 2.10938 20C2.10938 17.8974 3.36234 16.0131 5.30149 15.1997C5.33264 15.1866 5.3628 15.1718 5.39234 15.156H7.03118V18.32C7.03118 18.9025 7.5034 19.3747 8.08587 19.3747C8.66834 19.3747 9.14055 18.9025 9.14055 18.32V15.156H13.0781V20.2888C13.0781 20.8712 13.5503 21.3435 14.1328 21.3435C14.7153 21.3435 15.1875 20.8712 15.1875 20.2888V18.3903H16.2153C16.7977 18.3903 17.2699 17.9181 17.2699 17.3356C17.2699 16.7532 16.7977 16.281 16.2153 16.281H15.1875V15.156C15.1875 13.9929 14.2412 13.0466 13.0781 13.0466H12.4454V10.2266C12.4454 9.64409 11.9732 9.17188 11.3907 9.17188C10.8082 9.17188 10.336 9.64409 10.336 10.2266V13.0465H5.59898C5.49872 12.5076 5.56552 11.9452 5.80071 11.4302C6.14145 10.6841 6.79029 10.1399 7.58109 9.93716C8.06583 9.81284 8.39651 9.36509 8.3726 8.86524C8.31277 7.61122 8.75602 6.42111 9.62072 5.51422C10.4845 4.60831 11.6499 4.10938 12.9023 4.10938C14.6646 4.10938 16.2728 5.13755 17.0156 6.73295V10.2969C17.0156 11.46 17.9619 12.4062 19.125 12.4062H24.75C25.3325 12.4062 25.8047 11.934 25.8047 11.3516C25.8047 10.7691 25.3325 10.2969 24.75 10.2969H24.5391V8.82031C24.5391 8.23784 24.0668 7.76562 23.4844 7.76562C22.9019 7.76562 22.4297 8.23784 22.4297 8.82031V10.2969H19.125V6.57031C19.125 6.5348 19.1231 6.49972 19.1197 6.46505C19.9112 5.02337 21.4362 4.10938 23.0977 4.10938C24.3501 4.10938 25.5155 4.60831 26.3793 5.51429C27.244 6.42118 27.6872 7.61122 27.6274 8.86531C27.6035 9.36516 27.9342 9.81291 28.4189 9.93723C29.2097 10.14 29.8586 10.6842 30.1993 11.4302C30.5407 12.1779 30.5275 13.0256 30.1628 13.756C30.0325 14.017 30.0161 14.3204 30.1176 14.594C30.219 14.8675 30.4294 15.0868 30.6984 15.1996C32.6377 16.0131 33.8906 17.8974 33.8906 20C33.8906 22.0291 32.7234 23.8546 30.899 24.7109Z" fill="#219653"/>
<path d="M36 20C36 17.3855 34.6213 15.0113 32.4159 13.7072C32.6749 12.6644 32.5765 11.5579 32.118 10.5539C31.6278 9.48055 30.7782 8.64151 29.7259 8.16795C29.619 6.62945 28.9875 5.19303 27.906 4.05868C26.6402 2.73111 24.9326 2 23.0977 2C21.1041 2 19.2447 2.89782 18 4.38303V12.0799C18.3259 12.2863 18.7116 12.4063 19.125 12.4063H24.75C25.3325 12.4063 25.8047 11.9341 25.8047 11.3516C25.8047 10.7692 25.3325 10.2969 24.75 10.2969H24.5391V8.82031C24.5391 8.23784 24.0668 7.76562 23.4844 7.76562C22.9019 7.76562 22.4297 8.23784 22.4297 8.82031V10.2969H19.125V6.57031C19.125 6.5348 19.1231 6.49972 19.1197 6.46505C19.9112 5.02337 21.4362 4.10938 23.0977 4.10938C24.3501 4.10938 25.5155 4.60831 26.3793 5.51429C27.244 6.42118 27.6872 7.61122 27.6274 8.86531C27.6035 9.36516 27.9342 9.81291 28.4189 9.93723C29.2097 10.14 29.8586 10.6842 30.1993 11.4302C30.5407 12.1779 30.5275 13.0256 30.1628 13.756C30.0325 14.017 30.0161 14.3204 30.1176 14.594C30.219 14.8675 30.4294 15.0868 30.6984 15.1996C32.6377 16.0131 33.8906 17.8974 33.8906 20C33.8906 22.0291 32.7234 23.8546 30.899 24.7109H25.875V21.6792H29.6016C30.184 21.6792 30.6562 21.207 30.6562 20.6245C30.6562 20.5411 30.6562 17.5391 30.6562 17.5391C30.6562 16.9567 30.184 16.4844 29.6015 16.4844C29.019 16.4844 28.5468 16.9567 28.5468 17.5391V19.5698H25.875V17.7417C25.875 16.5786 24.9287 15.6323 23.7656 15.6323H21.6562C21.0738 15.6323 20.6016 16.1045 20.6016 16.687C20.6016 17.2695 21.0738 17.7417 21.6562 17.7417H23.7656V24.7109H19.0544V22.8125C19.0544 22.2301 18.5823 21.758 18 21.7578V26.5366C18.3104 26.7166 18.6704 26.8202 19.0544 26.8202H30.3725C30.5111 27.3989 30.4539 28.0121 30.1992 28.5698C29.8585 29.3158 29.2096 29.86 28.4188 30.0628C27.9341 30.1871 27.6034 30.6348 27.6273 31.1347C27.6872 32.3887 27.2439 33.5788 26.3792 34.4857C25.5155 35.3917 24.3501 35.8906 23.0977 35.8906C21.3893 35.8906 19.8255 34.9242 19.0547 33.4115V31.1797H20.9531C21.5356 31.1797 22.0078 30.7075 22.0078 30.125C22.0078 29.5425 21.5356 29.0703 20.9531 29.0703H19.0547C18.6706 29.0703 18.3105 29.174 18 29.3541V35.617C19.2447 37.1022 21.1041 38 23.0977 38C24.9326 38 26.6402 37.2689 27.906 35.9412C28.9875 34.8069 29.619 33.3705 29.7259 31.832C30.7783 31.3584 31.6279 30.5194 32.118 29.446C32.5766 28.442 32.6749 27.3355 32.4159 26.2927C34.6213 24.9887 36 22.6145 36 20Z" fill="#222222"/> -->
</svg>
