<svg width="65" height="64" viewBox="0 0 65 64" fill="none" xmlns="http://www.w3.org/2000/svg">
<path d="M39.797 23.357L38.5 20.764V16C38.5 7.729 31.771 1 23.5 1C15.229 1 8.5 7.729 8.5 16V20.764L7.203 23.358C6.743 24.278 6.5 25.308 6.5 26.337C6.5 30.011 9.489 33 13.163 33H19.149C16.076 31.511 13.882 28.499 13.549 24.942V25H12.5C10.843 25 9.5 23.657 9.5 22C9.5 20.343 10.843 19 12.5 19H13.5V17.279C13.5 15.372 14.846 13.731 16.716 13.357L17.106 13.279C18.281 14.367 19.843 15 21.5 15H31.5H33.5V19H34.5C36.157 19 37.5 20.343 37.5 22C37.5 23.657 36.157 25 34.5 25H33.451V24.958C33.113 28.509 30.919 31.514 27.85 33H33.837C37.511 33 40.5 30.011 40.5 26.337C40.5 25.308 40.257 24.278 39.797 23.357Z" fill="#219653"/>
<path d="M46.5 12H58.5V16H46.5V12Z" fill="#219653"/>
<path d="M22.5 19H20.5C20.5 19.551 20.051 20 19.5 20C18.949 20 18.5 19.551 18.5 19H16.5C16.5 20.654 17.846 22 19.5 22C21.154 22 22.5 20.654 22.5 19Z" fill="#222222"/>
<path d="M27.5 22C29.154 22 30.5 20.654 30.5 19H28.5C28.5 19.551 28.051 20 27.5 20C26.949 20 26.5 19.551 26.5 19H24.5C24.5 20.654 25.846 22 27.5 22Z" fill="#222222"/>
<path d="M29.443 35.162L27.489 35.053C27.479 34.792 27.447 34.535 27.395 34.285C30.999 32.921 33.614 29.751 34.31 26H34.5C36.706 26 38.5 24.206 38.5 22C38.5 19.794 36.706 18 34.5 18V14H31.5C29.414 14 27.539 12.841 26.605 10.976L26.394 10.554L24.605 11.448L24.816 11.871C25.226 12.691 25.78 13.397 26.423 13.996C24.368 13.968 22.527 12.819 21.605 10.977L21.394 10.555L19.605 11.449L19.816 11.872C20.226 12.692 20.78 13.398 21.423 13.997C19.368 13.969 17.527 12.82 16.605 10.978L16.394 10.556L14.605 11.45L14.816 11.873C14.976 12.193 15.157 12.498 15.356 12.786C13.654 13.599 12.5 15.325 12.5 17.279V18C10.294 18 8.5 19.794 8.5 22C8.5 24.206 10.294 26 12.5 26H12.689C13.305 29.348 15.437 32.244 18.516 33.807L18.352 35.117L17.557 35.161C8.553 35.662 1.5 43.118 1.5 52.136C1.5 58.126 6.374 63 12.364 63H45.5V52.136C45.5 43.118 38.447 35.662 29.443 35.162ZM10.5 22C10.5 20.897 11.397 20 12.5 20V24C11.397 24 10.5 23.103 10.5 22ZM36.5 22C36.5 23.103 35.603 24 34.5 24V20C35.603 20 36.5 20.897 36.5 22ZM14.5 24V17.279C14.5 15.882 15.477 14.672 16.831 14.361C18.129 15.403 19.759 16 21.5 16V14.068C22.846 15.287 24.605 16 26.5 16V14.068C27.846 15.287 29.605 16 31.5 16H32.5V24C32.5 27.804 30.096 31.184 26.57 32.462C26.273 32.068 25.917 31.716 25.5 31.43V28.124C25.5 26.402 24.098 25 22.375 25C20.803 25 19.47 26.177 19.275 27.737L18.784 31.667C16.145 30.046 14.5 27.165 14.5 24ZM24.086 38H20.008L21.26 27.985C21.33 27.423 21.81 27 22.375 27C22.996 27 23.5 27.504 23.5 28.125V32.619L24.053 32.895C24.945 33.341 25.5 34.238 25.5 35.236V35.502C25.5 36.191 25.221 36.866 24.733 37.353L24.086 38ZM3.5 52.136C3.5 44.179 9.724 37.6 17.668 37.159L18.1 37.135L17.462 42.239C16.959 46.264 15.29 50.087 12.722 53.209L10.394 48.553L8.605 49.448L11.283 54.803L9.793 56.293L11.207 57.707L12.765 56.149C16.431 52.483 18.804 47.631 19.447 42.487L19.758 40H23.5V44.929C23.5 49.349 22.161 53.598 19.626 57.219C17.969 59.586 15.254 61 12.364 61C7.477 61 3.5 57.023 3.5 52.136ZM43.5 61H37.5V46H35.5V61H18.628C19.638 60.287 20.537 59.405 21.264 58.366C24.035 54.408 25.5 49.761 25.5 44.929V39.414L26.147 38.767C26.641 38.273 26.993 37.681 27.219 37.042L29.331 37.159C37.277 37.6 43.5 44.179 43.5 52.136V61Z" fill="#222222"/>
<path d="M27.5 46H33.5V48H27.5V46Z" fill="#222222"/>
<path d="M58.86 7H46.14C43.582 7 41.5 9.082 41.5 11.64C41.5 11.946 41.53 12.253 41.59 12.55L42.934 19.27C43.366 21.431 45.279 23 47.483 23H48.5V24.586C48.5 25.917 49.583 27 50.914 27C51.559 27 52.165 26.749 52.621 26.293L55.914 23H57.516C59.721 23 61.634 21.431 62.065 19.271L63.409 12.551C63.47 12.252 63.5 11.946 63.5 11.64C63.5 9.082 61.418 7 58.86 7ZM61.449 12.157L60.105 18.878C59.859 20.108 58.77 21 57.516 21H55.086L51.207 24.879C50.969 25.117 50.5 24.924 50.5 24.586V21H47.484C46.23 21 45.141 20.108 44.896 18.878L43.552 12.156C43.517 11.988 43.5 11.814 43.5 11.64C43.5 10.184 44.684 9 46.14 9H58.86C60.316 9 61.5 10.184 61.5 11.64C61.5 11.814 61.483 11.988 61.449 12.157Z" fill="#222222"/>
<path d="M46.5 11H58.5V13H46.5V11Z" fill="#222222"/>
<path d="M46.5 15H58.5V17H46.5V15Z" fill="#222222"/>
</svg>
