<svg width="65" height="64" viewBox="0 0 65 64" fill="none" xmlns="http://www.w3.org/2000/svg">
<g clip-path="url(#clip0)">
<path d="M22.2848 24.8494H0.5L2.20593 18.8796C2.74427 16.9939 4.34192 15.5669 6.27667 15.2441L9.00514 14.7895V14.0714C7.70066 12.9058 6.96211 11.2765 6.96211 9.52665V6.4621C6.96211 3.08191 9.71101 0.333008 13.0912 0.333008C16.4714 0.333008 19.2203 3.08191 19.2203 6.4621V9.52665C19.2203 11.2765 18.4817 12.9058 17.1773 14.0714V14.7895L19.9047 15.2441C21.8405 15.5659 23.4381 16.9939 23.9765 18.8796L24.7273 21.507L22.7629 22.0678L22.0121 19.4405C21.6893 18.3096 20.7301 17.4536 19.5686 17.2595L15.1342 16.522V13.0815L15.5398 12.7751C16.5807 11.9875 17.1773 10.8035 17.1773 9.52665V6.4621C17.1773 4.20864 15.3447 2.37604 13.0912 2.37604C10.8377 2.37604 9.00514 4.20864 9.00514 6.4621V9.52665C9.00514 10.8035 9.6017 11.9875 10.6426 12.7751L11.0482 13.0815V16.522L6.61275 17.2595C5.45231 17.4526 4.4931 18.3086 4.17031 19.4405L3.20906 22.8064H22.2848V24.8494Z" fill="#222222"/>
<path d="M64.5001 24.8494H42.7153V22.8064H61.7921L60.8308 19.4405C60.508 18.3096 59.5488 17.4536 58.3874 17.2595L53.9519 16.522V13.0815L54.3575 12.7751C55.3984 11.9875 55.995 10.8035 55.995 9.52665V6.4621C55.995 4.20864 54.1624 2.37604 51.9089 2.37604C49.6554 2.37604 47.8228 4.20864 47.8228 6.4621V9.52665C47.8228 10.8035 48.4194 11.9875 49.4603 12.7751L49.8659 13.0815V16.522L45.4305 17.2605C44.27 17.4536 43.3108 18.3096 42.988 19.4415L41.9461 23.0873L39.9817 22.5265L41.0236 18.8807C41.562 16.995 43.1596 15.5679 45.0944 15.2451L47.8228 14.7895V14.0714C46.5184 12.9048 45.7798 11.2765 45.7798 9.52665V6.4621C45.7798 3.08191 48.5287 0.333008 51.9089 0.333008C55.2891 0.333008 58.038 3.08191 58.038 6.4621V9.52665C58.038 11.2765 57.2994 12.9058 55.995 14.0714V14.7895L58.7224 15.2441C60.6582 15.5659 62.2558 16.9939 62.7942 18.8796L64.5001 24.8494Z" fill="#222222"/>
<path d="M38.9283 6.76142L40.3727 8.20584L44.1595 4.41908L40.3727 0.632324L38.9283 2.07675L40.2491 3.39757H23.3063V5.4406H40.2491L38.9283 6.76142Z" fill="#222222"/>
<path d="M27.0931 9.22738L25.6487 7.78296L21.8619 11.5697L25.6487 15.3565L27.0931 13.9121L25.7723 12.5912H42.7151V10.5482H25.7723L27.0931 9.22738Z" fill="#222222"/>
<path d="M41.2043 21.8931L40.6935 21.3823C38.3175 19.0073 35.1589 17.6987 31.7981 17.6987C24.862 17.6987 19.2202 23.3406 19.2202 30.2767V38.129H20.2417C20.2417 36.4364 21.6136 35.0645 23.3063 35.0645V34.043C25.9224 34.043 28.4312 33.0041 30.2812 31.1541L31.4784 29.9569L31.5836 30.0969C33.4469 32.5812 36.3704 34.043 39.4748 34.043H41.6936V35.0645C43.3862 35.0645 44.7581 36.4364 44.7581 38.129H45.7796V28.0395C45.7796 25.1885 43.9123 22.7021 41.2043 21.8931Z" fill="#219653"/>
<path d="M59.0594 63.6668C61.8802 63.6668 64.1669 61.3801 64.1669 58.5592C64.1669 55.7384 61.8802 53.4517 59.0594 53.4517C56.2385 53.4517 53.9518 55.7384 53.9518 58.5592C53.9518 61.3801 56.2385 63.6668 59.0594 63.6668Z" fill="#219653"/>
<path d="M49.881 55.7338C49.1037 53.1453 46.9697 51.2371 44.3107 50.7539L37.6075 49.5342V49.0051C40.1143 47.5494 41.95 45.0661 42.522 42.1303C44.3792 41.7462 45.7796 40.0985 45.7796 38.129C45.7796 36.23 44.4721 34.6446 42.7151 34.188V33.0214H39.4759C36.7076 33.0214 34.0618 31.6996 32.4019 29.486L31.5898 28.4011L29.56 30.4319C27.8888 32.1021 25.668 33.0214 23.3063 33.0214H22.2848V34.188C20.5278 34.6446 19.2202 36.23 19.2202 38.129C19.2202 40.0985 20.6207 41.7462 22.4779 42.1303C23.0509 45.0661 24.8856 47.5505 27.3924 49.0051V49.5342L20.6892 50.7529C18.0302 51.2371 15.8962 53.1453 15.1189 55.7338L12.7397 63.6669H52.2601L49.881 55.7338ZM21.2633 38.129C21.2633 37.3762 21.677 36.7244 22.2848 36.37V39.8881C21.677 39.5336 21.2633 38.8819 21.2633 38.129ZM28.1585 51.4721L30.9452 53.5621L28.8603 55.646L27.5078 51.5895L28.1585 51.4721ZM32.4999 52.1749L29.5222 49.9418C30.4651 50.2299 31.4641 50.3872 32.4999 50.3872C33.5358 50.3872 34.5348 50.2299 35.4777 49.9418L32.4999 52.1749ZM36.8414 51.4721L37.4911 51.5906L36.1386 55.647L34.0537 53.5631L36.8414 51.4721ZM43.7366 38.129C43.7366 38.8819 43.3229 39.5336 42.7151 39.8881V36.37C43.3229 36.7244 43.7366 37.3762 43.7366 38.129ZM24.3278 40.172V35.0175C26.8499 34.7836 29.1902 33.6895 31.0044 31.8763L31.4018 31.479C33.45 33.7396 36.4001 35.0645 39.4759 35.0645H40.6721V40.172C40.6721 44.678 37.0058 48.3442 32.4999 48.3442C27.994 48.3442 24.3278 44.678 24.3278 40.172ZM15.4856 61.6239L17.0771 56.3212C17.6318 54.4722 19.1559 53.1085 21.0559 52.7643L25.4791 51.9603L27.9685 59.4297L32.4999 54.8962L37.0324 59.4286L39.5218 51.9593L43.945 52.7633C45.844 53.1085 47.3691 54.4722 47.9238 56.3202L49.5143 61.6239H15.4856Z" fill="#222222"/>
<path d="M59.0594 61.624C57.3698 61.624 55.9949 60.249 55.9949 58.5594C55.9949 56.8698 57.3698 55.4949 59.0594 55.4949C60.749 55.4949 62.124 56.8698 62.124 58.5594C62.124 60.249 60.749 61.624 59.0594 61.624ZM59.0594 57.5379C58.4966 57.5379 58.0379 57.9955 58.0379 58.5594C58.0379 59.1233 58.4966 59.5809 59.0594 59.5809C59.6223 59.5809 60.0809 59.1233 60.0809 58.5594C60.0809 57.9955 59.6223 57.5379 59.0594 57.5379Z" fill="#222222"/>
<path d="M60.0809 51.4087H58.0378V53.4517H60.0809V51.4087Z" fill="#222222"/>
<path d="M60.0809 47.3228H58.0378V49.3658H60.0809V47.3228Z" fill="#222222"/>
<path d="M60.0809 43.2366H58.0378V45.2796H60.0809V43.2366Z" fill="#222222"/>
<path d="M5.94059 63.6671C8.76142 63.6671 11.0482 61.3803 11.0482 58.5595C11.0482 55.7386 8.76142 53.4519 5.94059 53.4519C3.11975 53.4519 0.833008 55.7386 0.833008 58.5595C0.833008 61.3803 3.11975 63.6671 5.94059 63.6671Z" fill="#219653"/>
<path d="M5.94065 61.624C4.25106 61.624 2.8761 60.249 2.8761 58.5594C2.8761 56.8698 4.25106 55.4949 5.94065 55.4949C7.63023 55.4949 9.00519 56.8698 9.00519 58.5594C9.00519 60.249 7.63023 61.624 5.94065 61.624ZM5.94065 57.5379C5.37779 57.5379 4.91913 57.9955 4.91913 58.5594C4.91913 59.1233 5.37779 59.5809 5.94065 59.5809C6.5035 59.5809 6.96216 59.1233 6.96216 58.5594C6.96216 57.9955 6.5035 57.5379 5.94065 57.5379Z" fill="#222222"/>
<path d="M6.9621 51.4087H4.91907V53.4517H6.9621V51.4087Z" fill="#222222"/>
<path d="M6.9621 47.3228H4.91907V49.3658H6.9621V47.3228Z" fill="#222222"/>
<path d="M6.9621 43.2366H4.91907V45.2796H6.9621V43.2366Z" fill="#222222"/>
</g>
<defs>
<clipPath id="clip0">
<rect width="64" height="64" fill="white" transform="translate(0.5)"/>
</clipPath>
</defs>
</svg>
