<svg width="64" height="64" viewBox="0 0 64 64" fill="none" xmlns="http://www.w3.org/2000/svg">
<path d="M47 51H38C33.038 51 29 46.963 29 42V41H38C42.962 41 47 45.037 47 50V51Z" fill="#219653"/>
<path d="M50 52H46C46 48.686 48.686 46 52 46H56C56 49.314 53.314 52 50 52Z" fill="#219653"/>
<path d="M52.024 15.125C50.939 14.008 49.553 13.3 48 13.079C48 13.053 48 13.026 48 13C48 8.589 44.411 5 40 5C38.617 5 37.315 5.353 36.179 5.974C34.155 2.89 30.739 1 27 1C20.935 1 16 5.935 16 12C16 12.359 16.025 12.716 16.06 13.071C15.875 13.095 15.69 13.117 15.505 13.156C12.858 13.708 10.708 15.858 10.156 18.505C9.71604 20.616 10.23 22.77 11.567 24.414C12.903 26.057 14.883 27 17 27H22C23.654 27 25 28.346 25 30V39H27V30C27 27.243 24.757 25 22 25H17C15.488 25 14.073 24.326 13.118 23.152C12.163 21.977 11.797 20.432 12.114 18.913C12.506 17.032 14.032 15.506 15.913 15.114C17.43 14.797 18.976 15.163 20.152 16.118C21.326 17.073 22 18.488 22 20H24C24 17.883 23.057 15.903 21.414 14.566C20.44 13.774 19.287 13.279 18.07 13.092C18.026 12.731 18 12.366 18 12C18 7.038 22.038 3 27 3C30.091 3 32.911 4.58 34.56 7.151C32.99 8.612 32 10.69 32 13H34C34 9.691 36.691 7 40 7C43.309 7 46 9.691 46 13C46 13.257 45.978 13.531 45.93 13.861L45.846 15H47C48.364 15 49.638 15.539 50.588 16.518C51.538 17.497 52.038 18.788 51.997 20.155C51.917 22.826 49.562 25 46.749 25H34C31.243 25 29 27.243 29 30V39H31V30C31 28.346 32.346 27 34 27H46.749C50.633 27 53.885 23.956 53.997 20.214C54.054 18.303 53.354 16.496 52.024 15.125Z" fill="#222222"/>
<path d="M44 17V19H42V21H44V23H46V21H48V19H46V17H44Z" fill="#222222"/>
<path d="M36 13V15H34V17H36V19H38V17H40V15H38V13H36Z" fill="#222222"/>
<path d="M26 5V7H24V9H26V11H28V9H30V7H28V5H26Z" fill="#222222"/>
<path d="M30 23V21H32V19H30V17H28V19H26V21H28V23H30Z" fill="#222222"/>
<path d="M62.846 61.376C61.575 57.562 58.02 55 54 55C51.257 55 48.732 56.194 47 58.164V40H45V58.164C43.268 56.194 40.743 55 38 55C35.979 55 34.009 55.688 32.398 56.906C31.784 55.923 30.755 55.225 29.555 55.056C29.843 54.418 30 53.721 30 53C30 47.176 26.15 42.234 20.862 40.585C22.167 39.484 23 37.838 23 36C23 32.691 20.309 30 17 30C13.691 30 11 32.691 11 36C11 37.838 11.833 39.484 13.138 40.585C7.85 42.234 4 47.176 4 53C4 53.721 4.157 54.418 4.445 55.056C2.504 55.329 1 56.984 1 59C1 61.206 2.794 63 5 63H20H20.36H28H29H44.613H47.387H63.387L62.846 61.376ZM13 36C13 33.794 14.794 32 17 32C19.206 32 21 33.794 21 36C21 38.206 19.206 40 17 40C14.794 40 13 38.206 13 36ZM18.981 42.188C18.884 43.201 18.039 44 17 44C15.961 44 15.116 43.201 15.019 42.188C15.663 42.07 16.323 42 17 42C17.677 42 18.337 42.07 18.981 42.188ZM13.074 42.737C13.422 44.591 15.047 46 17 46C18.953 46 20.578 44.591 20.926 42.737C25.055 44.322 28 48.319 28 53C28 53.826 27.651 54.595 27.058 55.16L19.264 56.621C19.719 56.031 20 55.301 20 54.5C20 53.961 19.867 53.456 19.649 53H25V49H23V51H16.5H16H11V49H9V53H16H16.5C17.327 53 18 53.673 18 54.5C18 55.327 17.327 56 16.5 56H11.423L6.942 55.16C6.349 54.595 6 53.826 6 53C6 48.319 8.945 44.322 13.074 42.737ZM20.36 61H20H5C3.897 61 3 60.103 3 59C3 57.897 3.897 57 5 57H5.721C5.845 57 5.968 57.012 6.09 57.034L20.478 59.731C20.781 59.789 21 60.053 21 60.36C21 60.713 20.713 61 20.36 61ZM28 61H22.913C22.964 60.794 23 60.582 23 60.36C23 59.458 22.538 58.653 21.825 58.175L27.91 57.034C28.032 57.012 28.155 57 28.279 57H29C30.103 57 31 57.897 31 59C31 60.103 30.103 61 29 61H28ZM32.444 61C32.787 60.412 32.998 59.738 32.999 59.01C34.357 57.732 36.153 57 38 57C40.789 57 43.292 58.569 44.527 61H32.444ZM47.473 61C48.708 58.569 51.212 57 54 57C56.788 57 59.292 58.569 60.527 61H47.473Z" fill="#222222"/>
<path d="M54 41H45V40C45 35.037 49.038 31 54 31H63V32C63 36.963 58.962 41 54 41Z" fill="#219653"/>
</svg>
