<svg width="64" height="64" viewBox="0 0 64 64" fill="none" xmlns="http://www.w3.org/2000/svg">
<path d="M50.5806 29.7363L48.0309 28.7805L49.1581 26.302L45.9561 23.0999L43.4776 24.2272L42.5217 21.6775H37.9932L37.0374 24.2272L34.5589 23.0999L31.3568 26.302L32.4841 28.7805L29.9354 29.7363V34.2648L32.4851 35.2207L31.3579 37.6992L34.5599 40.9012L37.0384 39.774L37.9943 42.3227H42.5228L43.4787 39.773L45.9571 40.9002L49.1592 37.6981L48.0319 35.2197L50.5806 34.2638V29.7363ZM40.258 35.0968C38.5476 35.0968 37.1612 33.7105 37.1612 32.0001C37.1612 30.2896 38.5476 28.9033 40.258 28.9033C41.9685 28.9033 43.3548 30.2896 43.3548 32.0001C43.3548 33.7105 41.9685 35.0968 40.258 35.0968Z" fill="#219653"/>
<path d="M34.145 12.3872C24.993 12.3872 17.0777 18.2773 14.4485 27.0422L13.7063 29.5134C12.9208 32.1343 11.4828 34.5426 9.54838 36.477L8.56051 37.4649C8.36644 37.6569 8.25806 37.9191 8.25806 38.1937C8.25806 38.4672 8.36644 38.7304 8.56051 38.9235C11.6934 42.0574 13.4193 46.2236 13.4193 50.654C13.4193 54.0285 16.1641 56.7743 19.5396 56.7743C21.1097 56.7743 22.6684 56.381 24.0485 55.6368L25.8064 54.6912V62.9678C25.8064 63.5377 26.2679 64.0001 26.8387 64.0001H44.3871C44.9579 64.0001 45.4193 63.5377 45.4193 62.9678V55.3797C45.4193 51.8948 46.7757 48.6184 49.2408 46.1534C52.767 42.6272 54.7097 37.9387 54.7097 32.9519C54.7097 21.6125 45.4844 12.3872 34.145 12.3872ZM47.7812 44.6948C44.9259 47.548 43.3548 51.3426 43.3548 55.3797V61.9356H41.2903V42.3227H39.2258V61.9356H27.871V53.5795L35.5861 49.4257L34.6085 47.6078L23.0699 53.82C21.9892 54.4022 20.768 54.7098 19.5396 54.7098C17.3037 54.7098 15.4839 52.8909 15.4839 50.654C15.4839 46.0171 13.8033 41.6383 10.7313 38.2133L11.009 37.9356C13.184 35.7596 14.8015 33.052 15.6852 30.1059L16.4273 27.6347C18.7912 19.7493 25.9128 14.4517 34.145 14.4517C35.9081 14.4517 37.6093 14.7149 39.2258 15.1784V21.6775H41.2903V15.8897C47.9535 18.6902 52.6452 25.2822 52.6452 32.9519C52.6452 37.3875 50.9172 41.5578 47.7812 44.6948Z" fill="#222222"/>
<path d="M5.16129 10.3226H52.8888L63.2114 5.16129L52.8888 0H5.16129C2.31535 0 0 2.31535 0 5.16129C0 8.00723 2.31535 10.3226 5.16129 10.3226ZM11.3548 6.19355H13.4194V4.12903H11.3548V2.06452H51.6129V4.12903H15.4839V6.19355H51.6129V8.25806H11.3548V6.19355ZM53.6774 7.62013V2.70245L58.5951 5.16129L53.6774 7.62013ZM5.16129 2.06452H9.29032V8.25806H5.16129C3.45394 8.25806 2.06452 6.86865 2.06452 5.16129C2.06452 3.45394 3.45394 2.06452 5.16129 2.06452Z" fill="#222222"/>
<path d="M40.2581 27.8708C37.9809 27.8708 36.129 29.7227 36.129 31.9999C36.129 34.277 37.9809 36.1289 40.2581 36.1289C42.5352 36.1289 44.3871 34.277 44.3871 31.9999C44.3871 29.7227 42.5352 27.8708 40.2581 27.8708ZM40.2581 34.0644C39.1195 34.0644 38.1935 33.1385 38.1935 31.9999C38.1935 30.8613 39.1195 29.9354 40.2581 29.9354C41.3966 29.9354 42.3226 30.8613 42.3226 31.9999C42.3226 33.1385 41.3966 34.0644 40.2581 34.0644Z" fill="#222222"/>
<path d="M60.9032 57.8064C59.1958 57.8064 57.8064 59.1958 57.8064 60.9032C57.8064 62.6105 59.1958 63.9999 60.9032 63.9999C62.6105 63.9999 63.9999 62.6105 63.9999 60.9032C63.9999 59.1958 62.6105 57.8064 60.9032 57.8064ZM60.9032 61.9354C60.3334 61.9354 59.8709 61.4719 59.8709 60.9032C59.8709 60.3344 60.3334 59.8709 60.9032 59.8709C61.473 59.8709 61.9354 60.3344 61.9354 60.9032C61.9354 61.4719 61.473 61.9354 60.9032 61.9354Z" fill="#222222"/>
<path d="M3.09677 39.2258C1.38942 39.2258 0 40.6152 0 42.3226C0 44.03 1.38942 45.4194 3.09677 45.4194C4.80413 45.4194 6.19355 44.03 6.19355 42.3226C6.19355 40.6152 4.80413 39.2258 3.09677 39.2258ZM3.09677 43.3549C2.52697 43.3549 2.06452 42.8914 2.06452 42.3226C2.06452 41.7538 2.52697 41.2903 3.09677 41.2903C3.66658 41.2903 4.12903 41.7538 4.12903 42.3226C4.12903 42.8914 3.66658 43.3549 3.09677 43.3549Z" fill="#222222"/>
<path d="M4.12897 49.5483H2.06445V51.6129H4.12897V49.5483Z" fill="#222222"/>
<path d="M4.12897 55.7419H2.06445V57.8065H4.12897V55.7419Z" fill="#222222"/>
<path d="M4.12897 61.9355H2.06445V64.0001H4.12897V61.9355Z" fill="#222222"/>
<path d="M61.9355 39.2258H59.871V41.2903H61.9355V39.2258Z" fill="#222222"/>
<path d="M61.9355 45.4194H59.871V47.484H61.9355V45.4194Z" fill="#222222"/>
<path d="M61.9355 51.6128H59.871V53.6773H61.9355V51.6128Z" fill="#222222"/>
</svg>
